<?xml version="1.0" encoding="utf-8"?>
<!-- Generator: Adobe Illustrator 23.0.1, SVG Export Plug-In . SVG Version: 6.00 Build 0)  -->
<svg version="1.1" id="Camada_1" xmlns="http://www.w3.org/2000/svg" xmlns:xlink="http://www.w3.org/1999/xlink" x="0px" y="0px"
	 viewBox="0 0 240.878 289.532" style="enable-background:new 0 0 240.878 289.532;" xml:space="preserve">
<style type="text/css">
	.st0{fill:#333333;}
	.st1{fill:#D64045;}
	.st2{fill:#FFFFFF;}
	.st3{fill:none;}
	.st4{fill:#FDFAF6;}
</style>
<g id="XMLID_19252_">
	<g id="XMLID_19262_">
		<path id="XMLID_19263_" class="st0" d="M120.43,283.388c-2.815,0-5.63-0.735-8.141-2.208l-78.941-46.287
			C12.778,222.835,0,200.527,0,176.682V37.834c0-1.219,0.797-2.295,1.964-2.649l69.434-21.084c32.084-9.741,66.001-9.741,98.082,0
			l69.435,21.084c1.166,0.354,1.964,1.43,1.964,2.649V176.68c0,23.848-12.781,46.152-33.353,58.212l-78.957,46.29
			C126.057,282.653,123.243,283.388,120.43,283.388z M204.725,230.119"/>
	</g>
</g>
<g id="XMLID_19400_">
	<g id="XMLID_19403_">
		<g id="XMLID_19407_">
			<g id="XMLID_19408_">
				<path id="XMLID_19409_" class="st1" d="M52.715,51.788h-22.16c-0.713,0-1.29-0.577-1.29-1.29c0-0.713,0.577-1.29,1.29-1.29
					h22.16c0.713,0,1.29,0.577,1.29,1.29C54.005,51.211,53.428,51.788,52.715,51.788z"/>
			</g>
		</g>
		<g id="XMLID_19404_">
			<g id="XMLID_19405_">
				<path id="XMLID_19406_" class="st1" d="M208.384,51.788h-22.16c-0.713,0-1.29-0.577-1.29-1.29c0-0.713,0.577-1.29,1.29-1.29
					h22.16c0.713,0,1.29,0.577,1.29,1.29C209.674,51.211,209.097,51.788,208.384,51.788z"/>
			</g>
		</g>
	</g>
	<g id="XMLID_19402_">
		<path class="st2" d="M28.154,88.042V61.634h8.159v26.407H28.154z"/>
		<path class="st2" d="M71.587,88.042h-7.961V76.73l-5.4,11.312h-5.321L47.506,76.73v11.312h-7.962V61.634h8.868l7.134,13.479
			l7.173-13.479h8.868V88.042z"/>
		<path class="st2" d="M94.526,88.042l-1.261-3.587H83.135l-1.261,3.587h-8.71l10.444-26.407h9.184l10.444,26.407H94.526z
			 M88.219,70.187l-2.68,7.528h5.321L88.219,70.187z"/>
		<path class="st2" d="M131.338,72.198c0.131,1.182,0.197,2.063,0.197,2.641c0,4.072-1.32,7.39-3.961,9.951
			c-2.641,2.563-6.037,3.843-10.188,3.843c-4.046,0-7.469-1.333-10.267-4s-4.198-5.932-4.198-9.794c0-3.863,1.393-7.128,4.178-9.795
			s6.214-4,10.287-4c3.179,0,5.945,0.703,8.296,2.108c2.352,1.406,3.974,3.33,4.868,5.774l-8.435,2.01
			c-0.867-1.734-2.443-2.602-4.729-2.602c-1.839,0-3.344,0.618-4.513,1.853c-1.169,1.235-1.754,2.785-1.754,4.651
			c0,1.865,0.591,3.415,1.773,4.65s2.693,1.853,4.533,1.853c2.417,0,4.165-0.867,5.242-2.602h-6.069v-6.542H131.338z"/>
		<path class="st2" d="M155.498,88.042h-21.284V61.634h21.086v6.74h-12.928v3.429h11.864v6.069h-11.864v3.43h13.125V88.042z"/>
		<path class="st2" d="M184.664,88.042h-6.661l-11.509-12.73v12.73h-8.159V61.634h6.701l11.509,13.243V61.634h8.119V88.042z"/>
		<path class="st2" d="M207.11,63.034c2.036,1.327,3.291,3.226,3.764,5.695l-7.922,1.616c-0.499-2.076-1.734-3.114-3.705-3.114
			c-0.735,0-1.327,0.164-1.773,0.493c-0.447,0.328-0.67,0.769-0.67,1.32c0,0.788,0.434,1.274,1.301,1.458l5.242,1.34
			c2.575,0.657,4.506,1.609,5.794,2.857s1.931,2.924,1.931,5.025c0,2.023-0.604,3.731-1.813,5.124s-2.647,2.371-4.316,2.937
			c-1.668,0.564-3.449,0.847-5.34,0.847c-3.311,0-6.096-0.755-8.355-2.266c-2.26-1.511-3.574-3.502-3.941-5.972l8.277-1.537
			c0.552,2.207,1.931,3.311,4.138,3.311c0.788,0,1.438-0.157,1.951-0.473c0.512-0.315,0.769-0.762,0.769-1.34
			c0-0.735-0.5-1.235-1.498-1.498l-5.439-1.34c-4.887-1.183-7.331-3.758-7.331-7.725c0-2.786,1.038-4.94,3.113-6.464
			c2.076-1.524,4.73-2.286,7.961-2.286C202.453,61.043,205.073,61.707,207.11,63.034z"/>
	</g>
	<g id="XMLID_19401_">
		<path class="st2" d="M36.454,102.297c0.544-0.43,0.908-1.076,1.092-1.938l2.03,0.415c-0.246,1.292-0.835,2.302-1.769,3.03
			c-0.933,0.729-2.035,1.092-3.307,1.092c-1.518,0-2.799-0.518-3.845-1.553c-1.046-1.036-1.569-2.313-1.569-3.83
			c0-1.508,0.523-2.781,1.569-3.822s2.328-1.562,3.845-1.562c1.261,0,2.358,0.356,3.292,1.069s1.528,1.679,1.784,2.899l-2.03,0.569
			c-0.185-0.852-0.551-1.492-1.1-1.923c-0.549-0.431-1.197-0.646-1.946-0.646c-0.933,0-1.718,0.326-2.354,0.977
			c-0.636,0.651-0.953,1.464-0.953,2.438c0,0.974,0.32,1.789,0.961,2.445c0.641,0.656,1.423,0.984,2.346,0.984
			C35.26,102.944,35.911,102.729,36.454,102.297z"/>
		<path class="st2" d="M50.142,100.052c0,1.446-0.405,2.614-1.215,3.507s-1.881,1.338-3.214,1.338c-1.364,0-2.461-0.445-3.292-1.338
			c-0.83-0.893-1.246-2.061-1.246-3.507v-5.69h2.092v5.69c0,0.861,0.223,1.551,0.669,2.068c0.446,0.519,1.039,0.777,1.777,0.777
			c0.697,0,1.261-0.259,1.691-0.777c0.431-0.518,0.646-1.207,0.646-2.068v-5.69h2.092V100.052z"/>
		<path class="st2" d="M58.784,104.667l-3.399-3.783h-1.092v3.783h-2.092V94.362h4.937c1.107,0,2,0.3,2.677,0.899
			s1.015,1.387,1.015,2.36c0,0.861-0.267,1.58-0.8,2.154s-1.251,0.928-2.153,1.061l3.461,3.83H58.784z M57.138,98.991
			c0.482,0,0.872-0.125,1.169-0.377c0.298-0.251,0.446-0.582,0.446-0.992s-0.148-0.74-0.446-0.991
			c-0.297-0.252-0.687-0.377-1.169-0.377h-2.845v2.737H57.138z"/>
		<path class="st2" d="M68.949,94.93c0.738,0.533,1.205,1.256,1.4,2.169l-2.092,0.431c-0.072-0.482-0.298-0.869-0.677-1.161
			c-0.38-0.292-0.831-0.438-1.354-0.438c-0.503,0-0.908,0.123-1.215,0.369s-0.461,0.549-0.461,0.907c0,0.564,0.344,0.913,1.03,1.046
			l2.215,0.446c0.852,0.185,1.515,0.525,1.992,1.022c0.477,0.498,0.715,1.141,0.715,1.931c0,0.995-0.374,1.784-1.123,2.368
			c-0.749,0.585-1.738,0.877-2.968,0.877c-1.139,0-2.11-0.264-2.915-0.792c-0.805-0.528-1.269-1.284-1.392-2.269l2.199-0.446
			c0.267,1.118,1.036,1.677,2.307,1.677c0.584,0,1.036-0.123,1.354-0.369s0.477-0.559,0.477-0.938c0-0.308-0.09-0.548-0.27-0.723
			c-0.179-0.175-0.489-0.308-0.931-0.399l-2.184-0.416c-1.805-0.379-2.707-1.363-2.707-2.953c0-0.933,0.354-1.689,1.061-2.269
			s1.661-0.869,2.861-0.869C67.319,94.13,68.211,94.397,68.949,94.93z"/>
		<path class="st2" d="M81.075,95.7c1.051,1.046,1.577,2.322,1.577,3.83c0,1.496-0.525,2.766-1.577,3.807
			c-1.051,1.04-2.335,1.561-3.853,1.561s-2.802-0.521-3.853-1.561c-1.051-1.041-1.577-2.311-1.577-3.807
			c0-1.508,0.525-2.784,1.577-3.83c1.051-1.046,2.335-1.569,3.853-1.569S80.024,94.654,81.075,95.7z M79.583,101.96
			c0.641-0.646,0.961-1.456,0.961-2.43c0-0.975-0.32-1.79-0.961-2.446c-0.641-0.656-1.428-0.984-2.361-0.984
			c-0.933,0-1.72,0.328-2.361,0.984C74.22,97.74,73.9,98.555,73.9,99.53c0,0.974,0.321,1.783,0.961,2.43
			c0.641,0.646,1.428,0.969,2.361,0.969C78.155,102.928,78.942,102.606,79.583,101.96z"/>
		<path class="st2" d="M91.877,94.362c1.702,0,3.071,0.474,4.107,1.422c1.036,0.949,1.553,2.192,1.553,3.73
			s-0.518,2.781-1.553,3.729s-2.405,1.423-4.107,1.423h-3.799V94.362H91.877z M91.877,102.775c1.077,0,1.938-0.295,2.584-0.885
			c0.646-0.59,0.969-1.382,0.969-2.376c0-0.995-0.323-1.787-0.969-2.377c-0.646-0.589-1.507-0.884-2.584-0.884H90.17v6.521H91.877z"
			/>
		<path class="st2" d="M107.056,104.667h-7.829V94.362h7.798v1.892h-5.707v2.322h5.26v1.861h-5.26v2.338h5.737V104.667z"/>
		<path class="st2" d="M114.805,98.776h4.999v1.892h-4.999v3.999h-2.092V94.362h7.69v1.892h-5.599V98.776z"/>
		<path class="st2" d="M130.684,95.7c1.051,1.046,1.577,2.322,1.577,3.83c0,1.496-0.525,2.766-1.577,3.807
			c-1.051,1.04-2.335,1.561-3.853,1.561s-2.802-0.521-3.853-1.561c-1.051-1.041-1.577-2.311-1.577-3.807
			c0-1.508,0.525-2.784,1.577-3.83c1.051-1.046,2.335-1.569,3.853-1.569S129.634,94.654,130.684,95.7z M129.193,101.96
			c0.641-0.646,0.961-1.456,0.961-2.43c0-0.975-0.32-1.79-0.961-2.446c-0.641-0.656-1.428-0.984-2.361-0.984
			c-0.933,0-1.72,0.328-2.361,0.984c-0.641,0.656-0.961,1.472-0.961,2.446c0,0.974,0.321,1.783,0.961,2.43
			c0.641,0.646,1.428,0.969,2.361,0.969C127.765,102.928,128.551,102.606,129.193,101.96z"/>
		<path class="st2" d="M138.242,96.253v8.413h-2.092v-8.413h-3.43v-1.892h8.952v1.892H138.242z"/>
		<path class="st2" d="M151.414,95.7c1.051,1.046,1.577,2.322,1.577,3.83c0,1.496-0.525,2.766-1.577,3.807
			c-1.051,1.04-2.335,1.561-3.853,1.561s-2.802-0.521-3.853-1.561c-1.051-1.041-1.577-2.311-1.577-3.807
			c0-1.508,0.525-2.784,1.577-3.83c1.051-1.046,2.335-1.569,3.853-1.569S150.363,94.654,151.414,95.7z M149.923,101.96
			c0.641-0.646,0.961-1.456,0.961-2.43c0-0.975-0.321-1.79-0.961-2.446c-0.641-0.656-1.428-0.984-2.361-0.984
			c-0.934,0-1.72,0.328-2.361,0.984c-0.641,0.656-0.961,1.472-0.961,2.446c0,0.974,0.32,1.783,0.961,2.43
			c0.641,0.646,1.428,0.969,2.361,0.969C148.494,102.928,149.281,102.606,149.923,101.96z"/>
		<path class="st2" d="M164.878,98.653c0.031,0.358,0.046,0.656,0.046,0.892c0,1.538-0.492,2.815-1.477,3.83
			s-2.235,1.522-3.753,1.522c-1.538,0-2.835-0.518-3.891-1.553c-1.057-1.036-1.584-2.313-1.584-3.83
			c0-1.508,0.523-2.781,1.569-3.822s2.328-1.562,3.845-1.562c1.138,0,2.159,0.267,3.061,0.8s1.533,1.303,1.892,2.308l-1.876,0.661
			c-0.625-1.199-1.651-1.8-3.076-1.8c-0.923,0-1.702,0.328-2.338,0.984s-0.954,1.467-0.954,2.431c0,0.974,0.328,1.789,0.984,2.445
			s1.466,0.984,2.43,0.984c0.779,0,1.446-0.213,2-0.639c0.554-0.425,0.918-1.007,1.092-1.745h-3.614v-1.907H164.878z"/>
		<path class="st2" d="M173.197,104.667l-3.399-3.783h-1.092v3.783h-2.092V94.362h4.937c1.107,0,2,0.3,2.677,0.899
			s1.015,1.387,1.015,2.36c0,0.861-0.267,1.58-0.8,2.154s-1.251,0.928-2.153,1.061l3.461,3.83H173.197z M171.551,98.991
			c0.482,0,0.872-0.125,1.169-0.377c0.298-0.251,0.446-0.582,0.446-0.992s-0.148-0.74-0.446-0.991
			c-0.297-0.252-0.687-0.377-1.169-0.377h-2.845v2.737H171.551z"/>
		<path class="st2" d="M184.669,104.667l-0.892-2.199h-4.553l-0.908,2.199h-2.261l4.46-10.305h1.954l4.46,10.305H184.669z
			 M181.501,96.899l-1.507,3.676h2.999L181.501,96.899z"/>
		<path class="st2" d="M190.097,98.776h4.999v1.892h-4.999v3.999h-2.092V94.362h7.69v1.892h-5.599V98.776z"/>
		<path class="st2" d="M197.155,104.667V94.362h2.092v10.305H197.155z"/>
		<path class="st2" d="M208.936,104.667l-0.892-2.199h-4.553l-0.908,2.199h-2.261l4.46-10.305h1.954l4.46,10.305H208.936z
			 M205.767,96.899l-1.507,3.676h2.999L205.767,96.899z"/>
	</g>
</g>
<g id="XMLID_19399_">
	<path class="st2" d="M67.009,43.866v1.356h-1.593V43.78c0-1.356-0.539-2.175-1.766-2.175c-1.206,0-1.766,0.818-1.766,2.175v7.966
		c0,1.356,0.56,2.175,1.766,2.175c1.227,0,1.766-0.818,1.766-2.175v-1.959h1.593v1.873c0,2.282-1.077,3.789-3.402,3.789
		c-2.304,0-3.38-1.507-3.38-3.789v-7.794c0-2.282,1.077-3.789,3.38-3.789C65.932,40.077,67.009,41.584,67.009,43.866z"/>
	<path class="st2" d="M72.389,52.262l-0.581,3.036h-1.55l2.885-15.071h2.433l2.885,15.071h-1.68L76.2,52.262H72.389z M72.605,50.82
		h3.359l-1.701-8.698L72.605,50.82z"/>
	<path class="st2" d="M88.579,43.866v1.356h-1.593V43.78c0-1.356-0.539-2.175-1.766-2.175c-1.206,0-1.766,0.818-1.766,2.175v7.966
		c0,1.356,0.56,2.175,1.766,2.175c1.227,0,1.766-0.818,1.766-2.175v-1.959h1.593v1.873c0,2.153-0.969,3.639-3.036,3.768v0.668
		c1.012,0,1.593,0.409,1.593,1.098c0,0.861-0.753,1.378-2.045,1.378c-1.249,0-1.981-0.495-1.981-1.335v-0.172h1.098v0.15
		c0,0.345,0.323,0.581,0.883,0.625c0.581,0,0.926-0.259,0.926-0.689c0-0.409-0.388-0.646-1.055-0.646h-0.194v-1.077
		c-2.024-0.15-2.971-1.636-2.971-3.768v-7.794c0-2.282,1.077-3.789,3.38-3.789C87.503,40.077,88.579,41.584,88.579,43.866z"/>
	<path class="st2" d="M93.96,52.262l-0.581,3.036h-1.55l2.885-15.071h2.433l2.885,15.071h-1.68l-0.581-3.036H93.96z M94.176,50.82
		h3.359l-1.701-8.698L94.176,50.82z"/>
	<path class="st2" d="M107.028,40.227c2.347,0,3.423,1.421,3.423,3.746v7.601c0,2.304-1.077,3.725-3.423,3.725h-3.531V40.227
		H107.028z M107.007,53.77c1.206,0,1.787-0.754,1.787-2.132v-7.751c0-1.378-0.582-2.131-1.809-2.131h-1.809V53.77H107.007z"/>
	<path class="st2" d="M114.046,43.866c0-2.304,1.141-3.789,3.445-3.789c2.325,0,3.466,1.485,3.466,3.789v7.794
		c0,2.282-1.141,3.789-3.466,3.789c-2.304,0-3.445-1.507-3.445-3.789V43.866z M115.703,51.746c0,1.378,0.582,2.175,1.787,2.175
		c1.228,0,1.787-0.797,1.787-2.175V43.78c0-1.356-0.56-2.175-1.787-2.175c-1.206,0-1.787,0.818-1.787,2.175V51.746z"/>
	<path class="st2" d="M128.06,40.227c2.369,0,3.359,1.206,3.359,3.445v1.227c0,1.658-0.582,2.691-1.873,3.101
		c1.378,0.409,1.895,1.528,1.895,3.144v2.347c0,0.668,0.021,1.292,0.301,1.809h-1.701c-0.194-0.431-0.28-0.818-0.28-1.83V51.1
		c0-1.701-0.797-2.239-2.196-2.239h-1.184v6.438h-1.679V40.227H128.06z M127.63,47.333c1.334,0,2.131-0.431,2.131-2.067v-1.442
		c0-1.356-0.495-2.066-1.744-2.066h-1.636v5.576H127.63z"/>
	<path class="st2" d="M140.697,46.902v1.507h-3.682v5.361h4.521v1.528h-6.201V40.227h6.201v1.529h-4.521v5.146H140.697z"/>
	<path class="st2" d="M151.762,43.844v0.409h-1.593v-0.495c0-1.356-0.517-2.153-1.722-2.153c-1.206,0-1.723,0.797-1.723,2.132
		c0,3.38,5.06,3.703,5.06,7.944c0,2.282-1.098,3.768-3.402,3.768s-3.38-1.485-3.38-3.768V50.82h1.572v0.947
		c0,1.356,0.56,2.153,1.765,2.153c1.206,0,1.766-0.797,1.766-2.153c0-3.358-5.038-3.682-5.038-7.923
		c0-2.325,1.077-3.768,3.337-3.768C150.686,40.077,151.762,41.562,151.762,43.844z"/>
	<path class="st2" d="M164.421,40.227c2.347,0,3.423,1.421,3.423,3.746v7.601c0,2.304-1.077,3.725-3.423,3.725h-3.531V40.227
		H164.421z M164.399,53.77c1.206,0,1.787-0.754,1.787-2.132v-7.751c0-1.378-0.582-2.131-1.809-2.131h-1.809V53.77H164.399z"/>
	<path class="st2" d="M176.928,46.902v1.507h-3.682v5.361h4.521v1.528h-6.201V40.227h6.201v1.529h-4.521v5.146H176.928z"/>
</g>
<path class="st1" d="M228.692,150.491v24.288c0,20.661-11.073,39.987-28.897,50.437l-74.52,43.687c-3.11,1.824-6.971,1.824-10.08,0
	l-74.506-43.687c-17.822-10.449-28.892-29.773-28.892-50.434V45.923l63.679-19.336c29.289-8.892,60.249-8.892,89.535,0l63.68,19.336
	v68.911c0.496,0.479,0.88,1.05,1.103,1.691l4.122,12.292V43.987c0-1.151-0.753-2.166-1.854-2.5l-65.534-19.899
	c-30.278-9.194-62.29-9.194-92.571,0L8.426,41.487c-1.101,0.334-1.853,1.349-1.853,2.5v130.795c0,22.505,12.06,43.559,31.474,54.939
	l74.505,43.687c2.37,1.39,5.027,2.084,7.684,2.084c2.656,0,5.311-0.694,7.681-2.081l74.521-43.689
	c19.416-11.383,31.479-32.434,31.479-54.942v-25.141L228.692,150.491z"/>
<g>
	<path class="st3" d="M167.164,162.992l-1.186-3.536l-0.599,0.753l1.641,4.894l0.016,0.006c0.967,0.519,1.685,1.429,1.97,2.495
		c2.358,8.815,3.558,17.045,3.616,24.686c1.61-5.27,2.25-11.713,1.275-19.597c-0.219-1.769,1.016-3.416,2.768-3.65l0.537-0.075
		l-0.965-7.863l-7.687,2.578C167.977,163.874,167.356,163.565,167.164,162.992z"/>
	<path class="st3" d="M134.183,171.433l-3.533,1.221c-0.536,0.183-0.825,0.771-0.645,1.307l5.167,15.406l-0.074,0l1.382,4.12
		c0.706,2.105,0.237,4.342-1.255,5.986c-0.718,0.791-1.595,1.361-2.553,1.682c-1.033,0.346-2.159,0.405-3.281,0.146l-19.763-4.546
		l4.46,13.3l16.931-5.678c3.988-1.337,8.133-0.987,11.686,0.639c2.393-6.266,2.905-14.681,0.193-26.558
		c-0.064-0.142-0.141-0.274-0.192-0.424l-3.989-11.895C138.277,168.512,136.611,170.594,134.183,171.433z"/>
	<path class="st4" d="M180.23,140.579l-14.021,4.702c-0.573,0.192-0.882,0.813-0.689,1.386c0.192,0.574,0.813,0.883,1.386,0.691
		l14.021-4.702c0.573-0.192,0.882-0.813,0.689-1.386C181.424,140.696,180.803,140.387,180.23,140.579z"/>
	<path class="st4" d="M120.268,152.494c-0.542-1.618-2.3-2.493-3.918-1.95c0,0-3.758,1.26-5.261,1.764
		c-0.147,0.05-0.371,0.313-0.291,0.55c0.135,0.401,0.334,0.995,0.429,1.278c0.088,0.262,0.406,0.298,0.549,0.25
		c1.484-0.498,5.27-1.767,5.27-1.767c0.473-0.159,0.988,0.097,1.146,0.571c0,0,0.114,0.339,0.152,0.452
		c0.067,0.199,0.218,0.276,0.387,0.219c0.412-0.138,1.162-0.39,1.473-0.494c0.244-0.082,0.249-0.321,0.226-0.392
		C120.389,152.855,120.268,152.494,120.268,152.494z"/>
	<path class="st2" d="M92.296,158.023l-4.915,1.648c-1.233,0.413-1.898,1.754-1.485,2.986l1.899,5.663
		c0.98,2.922,3.763,4.738,6.698,4.634l-0.745-2.222c-1.732-0.192-3.287-1.35-3.876-3.108l-1.899-5.663
		c-0.029-0.087,0.018-0.183,0.106-0.213l4.915-1.648c0.02-0.006,0.04,0.004,0.047,0.023l1.35,4.026l2.075-0.696l-1.35-4.026
		C94.725,158.263,93.46,157.633,92.296,158.023z"/>
	<path class="st4" d="M229.794,116.525c-0.422-1.218-1.406-2.21-2.697-2.721c-1.347-0.532-2.875-0.469-4.088,0.169l-21.761,11.437
		c-1.72,0.903-2.643,2.742-2.418,4.603l-1.603,0.537l-0.205-0.61c-0.192-0.574-0.813-0.883-1.386-0.691l-10.712,3.592
		c-0.573,0.192-0.882,0.813-0.689,1.387l0.707,2.107l-1.184,0.397l-0.154-0.458c-0.192-0.574-0.813-0.883-1.386-0.691l-20.758,6.961
		c-0.552,0.185-0.848,0.769-0.697,1.325l-1.17-0.852c-1.918-5.115-7.507-7.874-12.739-6.266l-0.648-1.932
		c-0.144-0.43-0.613-0.664-1.044-0.519l-4.442,1.49c-0.431,0.145-0.664,0.613-0.52,1.043l0.644,1.92l-5.005,1.678
		c-1.824,0.612-3.106,2.102-3.545,3.841l-4.135-12.33c-1.033-3.08-2.444-5.349-4.034-6.553c1.551-7.01-2.114-13.274-9.267-15.515
		c-8.523-2.672-22.916-0.411-34.376,10.874c-11.682,11.504-11.146,22.504-10.858,28.414l0.032,0.693
		c0.004,0.081,0.027,0.155,0.047,0.231c0.006,0.022,0.001,0.046,0.009,0.068l6.786,20.234l-0.071,0.024l15.758,46.989l-12.761,4.279
		c-2.701-0.658-5.566-0.553-8.213,0.335c-3.832,1.285-6.892,4.095-8.395,7.711c-1.097,2.638-1.357,5.461-0.794,8.179l2.786,1.638
		c-1.126-2.768-1.222-5.967,0.029-8.977c1.327-3.192,3.97-5.437,7.069-6.476c2.586-0.867,5.49-0.895,8.209,0.068
		c9.358,3.315,26.896,6.548,41.983,1.488c2.835-0.951,5.586-2.196,8.178-3.787c11.133-6.835,21.444-17.696,14.175-46.294
		c-0.25-0.982,0.284-2,1.245-2.322l18.86-6.325c1.001-0.336,2.061,0.23,2.334,1.25c8.978,33.559,0.812,58.38-24.276,73.783
		c-4.087,2.509-8.406,4.471-12.846,5.96c-16.461,5.521-34.61,4.556-48.997,1.012l5.872,3.451c2.959,0.526,6.033,0.948,9.198,1.223
		l3.635,6.32l3.817,2.243l-4.811-8.363c1.322,0.081,2.656,0.135,3.999,0.163l7.781,12.296l4.125,2.424l-9.305-14.705
		c8.406-0.052,17.094-1.208,25.383-3.988c4.746-1.592,9.22-3.668,13.295-6.17c4.499-2.762,8.462-5.821,11.912-9.159l4.615,13.798
		l1.94-1.098l-2.971-8.898c4.509-1.545,8.767-3.527,12.652-5.911c22.219-13.643,31.42-34.647,27.344-62.432
		c-0.254-1.735-1.561-3.068-3.188-3.469l-0.109-1.516l0.001,0.003c0,0,0.024-0.034,0.051-0.056l6.873-5.568
		c1.226-0.993,1.972-2.405,2.104-3.977c0.074-0.892-0.063-1.764-0.38-2.57c0.027-0.168,0.027-0.342-0.031-0.515l-0.423-1.261
		l1.533-0.514c0.817,1.95,2.839,3.106,4.956,2.761l24.567-4.008c0.247-0.041,0.488-0.101,0.722-0.18
		c1.034-0.347,1.916-1.05,2.483-2.002c0.694-1.168,0.838-2.573,0.396-3.845L229.794,116.525z M195.296,131.674l6.853,20.433
		l-8.636,2.896l-6.853-20.433L195.296,131.674z M181.877,138.008l1.881,5.608l-1.273,0.989c-0.273-0.186-0.617-0.262-0.955-0.149
		l-13.759,4.614c-0.214-0.214-0.44-0.417-0.69-0.599l-3.281-2.389l-0.606-1.808L181.877,138.008z M169.419,158.294
		c0.192,0.574,0.813,0.883,1.386,0.691l4.968-1.666l0.192,1.566l-7.074,2.372l-1.289-3.843l0.591-0.742
		c0.37-0.465,0.661-0.974,0.869-1.512c0.146,0.013,0.296-0.001,0.444-0.05l5.787-1.941c0.005,0.275,0.028,0.552,0.073,0.828
		l0.135,1.102l-5.392,1.808C169.535,157.1,169.226,157.721,169.419,158.294z M175.803,150.687l-6.374,2.137
		c-0.008-0.163-0.019-0.327-0.042-0.491c-0.065-0.479-0.193-0.937-0.367-1.372l9.298-3.118l-0.768,0.597
		C176.774,149.044,176.188,149.823,175.803,150.687z M145.408,135.086l0.644,1.92l-4.42,1.482l-0.644-1.9L145.408,135.086z
		 M136.536,142.507l10.759-3.608c2.51-0.842,5.143-0.385,7.184,0.994c-0.972-0.21-1.994-0.171-2.961,0.153
		c-0.985,0.33-1.857,0.928-2.521,1.73l-0.813,0.981c-0.918-0.531-2.329-0.607-3.837-0.102c-2.248,0.754-3.58,2.405-3.098,3.84
		c0.313,0.935,1.3,1.47,2.568,1.527l-2.745,3.31c-0.56,0.675-0.94,1.452-1.152,2.269l-2.785,0.934l-2.65-7.903
		C133.911,144.928,134.832,143.078,136.536,142.507z M147.635,143.417l-3.107,3.746c-1.229,0.126-2.241-0.218-2.482-0.936
		c-0.318-0.95,0.831-2.192,2.568-2.774C145.788,143.059,146.92,143.076,147.635,143.417z M123.124,127.399
		c1.095,1,2.16,2.856,2.959,5.239l10.317,30.765c0.82,2.445-0.496,5.119-2.933,5.959l-3.532,1.221
		c-1.667,0.575-2.567,2.403-2.006,4.074l1.284,3.83l-3.51,1.177c-1.757,0.589-3.667-0.361-4.256-2.118c0,0-0.133-0.362-0.458-0.253
		c-0.37,0.124-1.008,0.338-1.384,0.464c-0.185,0.062-0.318,0.214-0.235,0.461c0.021,0.061,0.002,0.024,0.002,0.024
		c0.973,2.902,4.126,4.471,7.028,3.498l3.51-1.177l0.643,1.918c-0.161,0.02-0.321,0.052-0.481,0.103l-6.296,2.028
		c-0.301,0.098-0.621,0.101-0.924,0.008l-17.195-5.25c-0.442-0.135-0.795-0.478-0.942-0.917l-4.531-13.51
		c-0.165-0.493-0.467-0.9-0.847-1.201l-6.107-18.209l6.048-2.028c0.573-0.192,0.882-0.813,0.689-1.387l-2.781-8.291
		c10.265-3.418,22.478-6.126,25.626-6.356C122.922,127.463,123.026,127.437,123.124,127.399z M130.744,184.67
		c0.233-0.076,0.486,0.052,0.563,0.283l3.096,9.231c0.45,1.343,0.151,2.77-0.8,3.819c-0.951,1.048-2.342,1.486-3.722,1.165
		l-23.329-5.367c-1.844-0.426-3.364-1.804-3.965-3.597L94.6,166.389l2.996-1.005c0.212-0.071,0.442,0.042,0.513,0.255l4.531,13.51
		c0.372,1.109,1.261,1.974,2.379,2.316l17.195,5.25c0.732,0.223,1.505,0.217,2.234-0.017L130.744,184.67z M82.019,122.308
		c4.977-4.901,10.208-7.821,15.059-9.448c7.285-2.443,13.712-1.967,17.127-0.897c6.136,1.921,9.217,7.371,7.679,13.401
		c-5.365,0.661-21.411,4.554-31.33,8.545c-9.413,3.783-14.289,6.997-18.834,12.749C71.602,140.792,72.459,131.722,82.019,122.308z
		 M71.966,149.989c4.805-6.762,9.26-9.972,19.403-14.05c1.185-0.476,2.444-0.944,3.747-1.404l2.428,7.24l-6.048,2.028
		c-0.573,0.192-0.882,0.813-0.689,1.387l6.077,18.122l-0.419,0.141l-2.075,0.696l-0.767,0.257c-0.99,0.332-1.524,1.408-1.192,2.398
		l1.317,3.928l0.745,2.222l2.188,6.524l-13.326,4.469L71.966,149.989z M83.98,186.048l13.397-4.493l3.134,9.345
		c0.841,2.509,2.967,4.438,5.549,5.035l1.065,0.245l4.887,14.572l-17.75,5.953L83.98,186.048z M82.976,222.8l10.277-3.447
		l3.625,6.296C91.757,225.092,86.97,224.044,82.976,222.8z M108.092,225.986c-2.876,0.155-5.748,0.109-8.549-0.094l-3.852-6.69
		l1.474-0.494l13.148,3.704L108.092,225.986z M110.798,225.779l1.154-1.858l0.081,0.032l0.566-0.802l4.286,1.651
		C114.882,225.245,112.848,225.574,110.798,225.779z M121.404,223.572c-0.301,0.101-0.61,0.18-0.913,0.274l-6.727-2.591
		l8.257-10.882l1.473-0.494l1.538,12.267C123.862,222.67,122.654,223.152,121.404,223.572z M129.132,219.994
		c-0.653,0.401-1.33,0.779-2.02,1.142l-1.581-12.608l6.183-2.073c3.459-1.16,7.056-0.85,10.132,0.573
		C138.966,213.009,134.243,216.857,129.132,219.994z M142.703,205.017c-3.552-1.626-7.698-1.976-11.686-0.639l-16.931,5.678
		l-4.46-13.3l19.763,4.546c1.122,0.259,2.248,0.2,3.281-0.146c0.958-0.321,1.836-0.891,2.553-1.682
		c1.491-1.643,1.961-3.881,1.255-5.986l-1.382-4.12l0.074,0l-5.167-15.406c-0.18-0.536,0.109-1.124,0.645-1.307l3.533-1.221
		c2.429-0.839,4.094-2.921,4.533-5.294l3.989,11.895c0.05,0.15,0.127,0.283,0.192,0.424
		C145.608,190.336,145.096,198.751,142.703,205.017z M145.001,171.169c-0.751,0.252-1.384,0.71-1.857,1.291l-5.315-15.847
		l1.971-0.661c0.066,0.432,0.17,0.862,0.336,1.279l4.921,13.92L145.001,171.169z M163.861,164.844l-0.782,0.262l-0.432-1.45
		l0.001,0.002c0,0,0.016-0.038,0.038-0.066l1.069-1.344l0.817,2.435C164.331,164.719,164.093,164.766,163.861,164.844z
		 M160.972,162.23c-0.459,0.578-0.617,1.339-0.424,2.052l0.453,1.521l-13.868,4.651l-4.948-13.998
		c-0.512-1.252-0.293-2.685,0.571-3.726l7.926-9.556c0.418-0.503,0.952-0.857,1.532-1.052c1.011-0.339,2.162-0.196,3.083,0.474
		l10.496,7.645c1.629,1.186,1.941,3.491,0.687,5.068L160.972,162.23z M169.006,167.604c-0.285-1.067-1.003-1.976-1.97-2.495
		l-0.016-0.006l-1.641-4.894l0.599-0.753l1.186,3.536c0.192,0.574,0.813,0.883,1.386,0.69l7.687-2.578l0.965,7.863l-0.537,0.075
		c-1.752,0.234-2.987,1.881-2.768,3.65c0.975,7.884,0.335,14.327-1.275,19.597C172.563,184.649,171.364,176.419,169.006,167.604z
		 M197.086,170.436c3.936,26.838-4.921,47.108-26.324,60.248c-3.744,2.299-7.852,4.209-12.203,5.702l-1.162-3.465
		c8.856-9.305,13.857-20.702,14.978-34.118c3.292-6.422,5.104-14.985,3.695-26.378c-0.075-0.599,0.322-1.126,0.897-1.213
		l17.785-2.481C195.878,168.574,196.925,169.338,197.086,170.436z M201.501,157.811l-6.873,5.569
		c-0.573,0.465-0.892,1.175-0.857,1.912l0.098,1.351l-14.499,2.023l-1.838-14.982c-0.23-1.333,0.294-2.684,1.362-3.515l8.478-6.589
		l4.413,13.159c0.192,0.574,0.813,0.883,1.386,0.69l9.529-3.195C203.007,155.516,202.6,156.92,201.501,157.811z M236.529,146.125
		c-0.365,0.611-0.978,1.031-1.676,1.141l-24.566,4.008c-1.168,0.19-2.289-0.485-2.665-1.608l-6.516-19.429
		c-0.377-1.124,0.112-2.339,1.16-2.891l21.762-11.437c0.109-0.057,0.223-0.106,0.342-0.146c0.594-0.199,1.288-0.175,1.923,0.075
		c0.697,0.276,1.22,0.788,1.43,1.392l9.013,26.876C236.968,144.779,236.893,145.514,236.529,146.125z"/>
</g>
<g>
</g>
<g>
</g>
<g>
</g>
<g>
</g>
<g>
</g>
<g>
</g>
</svg>
